<svg width="24" height="24" viewBox="0 0 24 24" fill="none" xmlns="http://www.w3.org/2000/svg">
<g id="ic/global/attach">
<path id="Path" d="M19.1674 12.1757C19.3579 11.9798 19.6667 11.9798 19.8572 12.1757C20.0476 12.3716 20.0476 12.6892 19.8572 12.8851L14.3392 18.5603C11.2847 21.7019 7.01421 21.6675 4.68291 19.2697C2.35106 16.8714 2.3171 12.4808 5.37265 9.33809L10.8906 3.66287C13.2204 1.26664 16.5034 1.63231 18.4777 3.66287C20.172 5.40553 19.9524 8.5307 17.7879 10.7569L12.27 16.4321C10.7437 18.0019 8.67481 17.7002 7.44187 16.4321C6.22682 15.1824 5.94131 13.0096 7.44187 11.4663L12.9598 5.79108C13.1502 5.59518 13.459 5.59518 13.6495 5.79108C13.84 5.98697 13.84 6.30458 13.6495 6.50048L8.1316 12.1757C7.05916 13.2787 7.26291 14.8292 8.1316 15.7227C9.01948 16.6359 10.4847 16.8496 11.5803 15.7227L17.0982 10.0475C18.9022 8.19211 19.0774 5.69848 17.7879 4.37227C16.1656 2.7037 13.4921 2.40592 11.5803 4.37227L6.06239 10.0475C3.39025 12.7958 3.4193 16.5513 5.37265 18.5603C7.32541 20.5687 10.9784 20.5982 13.6495 17.8509L19.1674 12.1757Z" fill="#089BAB"/>
</g>
</svg>
