<svg width="50" height="53" viewBox="0 0 50 53" fill="none" xmlns="http://www.w3.org/2000/svg">
<path fill-rule="evenodd" clip-rule="evenodd" d="M38.6 3.3C38.9866 3.3 39.3 3.6134 39.3 4V7.5H44.9C47.6062 7.5 49.8 9.69381 49.8 12.4V47.4C49.8 50.1062 47.6062 52.3 44.9 52.3H9.9C7.1938 52.3 5 50.1062 5 47.4V12.4C5 9.6938 7.1938 7.5 9.9 7.5H16.9V4C16.9 3.6134 17.2134 3.3 17.6 3.3C17.9866 3.3 18.3 3.6134 18.3 4V7.5H37.9V4C37.9 3.6134 38.2134 3.3 38.6 3.3Z" fill="#E6F5F6"/>
<rect x="1" y="4.5" width="44.8" height="44.8" rx="4.9" stroke="#6BC3CD" stroke-linejoin="round"/>
<path d="M34.6 1V8" stroke="#6BC3CD" stroke-linecap="round" stroke-linejoin="round"/>
<path d="M13.6 1V8" stroke="#6BC3CD" stroke-linecap="round" stroke-linejoin="round"/>
<path d="M1 16.4H45.8" stroke="#6BC3CD" stroke-linecap="round" stroke-linejoin="round"/>
<path d="M13.1 24.8C13.1 26.0703 12.0703 27.1 10.8 27.1C9.52974 27.1 8.5 26.0703 8.5 24.8C8.5 23.5297 9.52974 22.5 10.8 22.5C12.0703 22.5 13.1 23.5297 13.1 24.8Z" stroke="#6BC3CD"/>
<path d="M25.7 24.8C25.7 26.0703 24.6703 27.1 23.4 27.1C22.1298 27.1 21.1 26.0703 21.1 24.8C21.1 23.5297 22.1298 22.5 23.4 22.5C24.6703 22.5 25.7 23.5297 25.7 24.8Z" stroke="#6BC3CD"/>
<path d="M38.3 24.8C38.3 26.0703 37.2703 27.1 36 27.1C34.7298 27.1 33.7 26.0703 33.7 24.8C33.7 23.5297 34.7298 22.5 36 22.5C37.2703 22.5 38.3 23.5297 38.3 24.8Z" stroke="#6BC3CD"/>
<path d="M13.1 37.4C13.1 38.6702 12.0703 39.7 10.8 39.7C9.52974 39.7 8.5 38.6702 8.5 37.4C8.5 36.1297 9.52974 35.1 10.8 35.1C12.0703 35.1 13.1 36.1297 13.1 37.4Z" stroke="#6BC3CD"/>
<path d="M25.7 37.4C25.7 38.6702 24.6703 39.7 23.4 39.7C22.1298 39.7 21.1 38.6702 21.1 37.4C21.1 36.1297 22.1298 35.1 23.4 35.1C24.6703 35.1 25.7 36.1297 25.7 37.4Z" stroke="#6BC3CD"/>
<path d="M38.3 37.4C38.3 38.6702 37.2703 39.7 36 39.7C34.7298 39.7 33.7 38.6702 33.7 37.4C33.7 36.1297 34.7298 35.1 36 35.1C37.2703 35.1 38.3 36.1297 38.3 37.4Z" stroke="#6BC3CD"/>
</svg>
