<svg width="24" height="24" viewBox="0 0 24 24" fill="none" xmlns="http://www.w3.org/2000/svg">
<g id="ic/global/call">
<path id="Path" d="M21 16.42V19.956C21.0002 20.4813 20.594 20.9172 20.07 20.954C19.633 20.984 19.276 21 19 21C10.163 21 3 13.837 3 5C3 4.724 3.015 4.367 3.046 3.93C3.08277 3.40599 3.51871 2.99976 4.044 3H7.58C7.83697 2.99974 8.0523 3.19431 8.078 3.45C8.101 3.68 8.122 3.863 8.142 4.002C8.34073 5.38892 8.748 6.73783 9.35 8.003C9.445 8.203 9.383 8.442 9.203 8.57L7.045 10.112C8.36445 13.1865 10.8145 15.6365 13.889 16.956L15.429 14.802C15.5589 14.6204 15.8001 14.5577 16.002 14.653C17.267 15.2539 18.6156 15.6601 20.002 15.858C20.141 15.878 20.324 15.9 20.552 15.922C20.8073 15.9482 21.0013 16.1634 21.001 16.42H21Z" fill="#089BAB"/>
</g>
</svg>
