<svg xmlns="http://www.w3.org/2000/svg" width="20" height="20" viewBox="0 0 20 20" fill="none">
  <path d="M1.33337 10.417C1.33337 14.9733 5.02703 18.667 9.58337 18.667C14.1397 18.667 17.8334 14.9733 17.8334 10.417C17.8334 5.86064 14.1397 2.16699 9.58337 2.16699C5.02703 2.16699 1.33337 5.86064 1.33337 10.417Z" stroke="#089BAB"/>
  <rect x="-0.208333" y="0.208333" width="0.416667" height="2.08333" rx="0.208333" transform="matrix(-1 0 0 1 9.58333 1.66699)" stroke="#089BAB" stroke-width="0.416667"/>
  <mask id="path-3-inside-1_457_1090" fill="white">
    <path d="M10 5.41667C10 5.18655 9.81345 5 9.58333 5C9.35322 5 9.16667 5.18655 9.16667 5.41667V10.8333H10V5.41667Z"/>
  </mask>
  <path d="M9.16667 10.8333V11.8333H8.16667V10.8333H9.16667ZM10 10.8333H11V11.8333H10V10.8333ZM10.1667 5.41667V10.8333H8.16667V5.41667H10.1667ZM9.16667 9.83333H10V11.8333H9.16667V9.83333ZM9 10.8333V5.41667H11V10.8333H9ZM9.58333 6C9.9055 6 10.1667 5.73883 10.1667 5.41667H8.16667C8.16667 4.63426 8.80093 4 9.58333 4V6ZM9.58333 4C10.3657 4 11 4.63426 11 5.41667H9C9 5.73883 9.26117 6 9.58333 6V4Z" fill="#089BAB" mask="url(#path-3-inside-1_457_1090)"/>
  <mask id="path-5-inside-2_457_1090" fill="white">
    <path d="M7.3375 8.60084C7.16121 8.45292 6.8984 8.47591 6.75048 8.65219C6.60256 8.82847 6.62556 9.09129 6.80184 9.23921L9.46438 11.4733L10 10.835L7.3375 8.60084Z"/>
  </mask>
  <path d="M9.46438 11.4733L10.2304 12.1161L9.58763 12.8822L8.82159 12.2394L9.46438 11.4733ZM10 10.835L10.6428 10.0689L11.4089 10.7117L10.7661 11.4778L10 10.835ZM7.44463 8.47316L10.1072 10.7073L8.82159 12.2394L6.15905 10.0053L7.44463 8.47316ZM8.69833 10.8306L9.23399 10.1922L10.7661 11.4778L10.2304 12.1161L8.69833 10.8306ZM9.35725 11.601L6.69471 9.36688L7.98028 7.83479L10.6428 10.0689L9.35725 11.601ZM7.51653 9.29498C7.72361 9.04819 7.69142 8.68025 7.44463 8.47316L6.15905 10.0053C5.5597 9.50233 5.48152 8.60876 5.98444 8.00941L7.51653 9.29498ZM5.98444 8.00941C6.48736 7.41005 7.38093 7.33187 7.98028 7.83479L6.69471 9.36688C6.9415 9.57397 7.30944 9.54177 7.51653 9.29498L5.98444 8.00941Z" fill="#089BAB" mask="url(#path-5-inside-2_457_1090)"/>
  <rect x="-0.208333" y="0.208333" width="0.416667" height="2.08333" rx="0.208333" transform="matrix(-1 0 0 1 9.58333 16.667)" stroke="#089BAB" stroke-width="0.416667"/>
  <rect x="-0.208333" y="0.208333" width="2.08333" height="0.416667" rx="0.208333" transform="matrix(-1 0 0 1 2.91671 10)" stroke="#089BAB" stroke-width="0.416667"/>
  <mask id="path-9-inside-3_457_1090" fill="white">
    <path d="M18.3334 10H16.25C16.0199 10 15.8334 10.1865 15.8334 10.4167C15.8334 10.6468 16.0199 10.8333 16.25 10.8333H18.3334V10Z"/>
  </mask>
  <path d="M18.3334 10V9H19.3334V10H18.3334ZM18.3334 10.8333H19.3334V11.8333H18.3334V10.8333ZM18.3334 11H16.25V9H18.3334V11ZM16.25 9.83333H18.3334V11.8333H16.25V9.83333ZM17.3334 10.8333V10H19.3334V10.8333H17.3334ZM16.8334 10.4167C16.8334 10.0945 16.5722 9.83333 16.25 9.83333V11.8333C15.4676 11.8333 14.8334 11.1991 14.8334 10.4167H16.8334ZM16.25 11C16.5722 11 16.8334 10.7388 16.8334 10.4167H14.8334C14.8334 9.63426 15.4676 9 16.25 9V11Z" fill="#089BAB" mask="url(#path-9-inside-3_457_1090)"/>
</svg>