<svg width="24" height="24" viewBox="0 0 24 24" fill="none" xmlns="http://www.w3.org/2000/svg">
<path d="M15.5 7C15.5 9.48528 13.4853 11.5 11 11.5C8.51472 11.5 6.5 9.48528 6.5 7C6.5 4.51472 8.51472 2.5 11 2.5C13.4853 2.5 15.5 4.51472 15.5 7Z" stroke="white"/>
<path d="M18.3855 20.5H3.61447C3.65603 20.3273 3.70972 20.1218 3.77766 19.8914C3.99131 19.1669 4.34298 18.2061 4.89463 17.2499C5.99592 15.341 7.85708 13.5 11 13.5C14.1429 13.5 16.0041 15.341 17.1054 17.2499C17.657 18.2061 18.0087 19.1669 18.2223 19.8914C18.2903 20.1218 18.344 20.3273 18.3855 20.5Z" stroke="white"/>
<rect x="18.25" y="8.25" width="3.5" height="0.5" rx="0.25" fill="#D8D8D8" stroke="white" stroke-width="0.5"/>
<rect x="18.25" y="14.25" width="3.5" height="0.5" rx="0.25" fill="#D8D8D8" stroke="white" stroke-width="0.5"/>
<rect x="17.25" y="11.25" width="4.5" height="0.5" rx="0.25" fill="#D8D8D8" stroke="white" stroke-width="0.5"/>
</svg>
