<svg xmlns="http://www.w3.org/2000/svg" width="25" height="24" viewBox="0 0 25 24" fill="none">
  <path d="M18.136 7.66716C19.9964 8.88629 21.7573 10.4682 23.3319 12.0207C21.7699 13.5571 20.0017 15.1224 18.1351 16.3315C16.1205 17.6363 14.0346 18.4975 11.9994 18.5001C9.95778 18.5027 7.88587 17.6448 5.88573 16.3406C4.03139 15.1316 2.27588 13.5637 0.70979 12.021C2.26476 10.4903 4.02818 8.91918 5.88973 7.70071C7.89993 6.38495 9.97937 5.51045 12.0026 5.50009C14.0533 5.4896 16.1303 6.35275 18.136 7.66716Z" stroke="#089BAB"/>
  <mask id="path-2-inside-1_366_894" fill="white">
    <path d="M12 18H13V20.5C13 20.7761 12.7761 21 12.5 21C12.2239 21 12 20.7761 12 20.5V18Z"/>
  </mask>
  <path d="M12 18V17H11V18H12ZM13 18H14V17H13V18ZM12 19H13V17H12V19ZM12 18V20.5H14V18H12ZM13 20.5V18H11V20.5H13ZM12.5 20C12.7761 20 13 20.2239 13 20.5H11C11 21.3284 11.6716 22 12.5 22V20ZM12 20.5C12 20.2239 12.2239 20 12.5 20V22C13.3284 22 14 21.3284 14 20.5H12Z" fill="#089BAB" mask="url(#path-2-inside-1_366_894)"/>
  <mask id="path-4-inside-2_366_894" fill="white">
    <path d="M18 16.6426L18.766 15.9998L20.373 17.9149C20.5505 18.1264 20.5229 18.4418 20.3114 18.6193C20.0998 18.7968 19.7845 18.7692 19.607 18.5577L18 16.6426Z"/>
  </mask>
  <path d="M18 16.6426L17.3572 15.8765L16.5912 16.5193L17.234 17.2854L18 16.6426ZM18.766 15.9998L19.5321 15.357L18.8893 14.591L18.1233 15.2337L18.766 15.9998ZM18.6428 17.4086L19.4088 16.7658L18.1233 15.2337L17.3572 15.8765L18.6428 17.4086ZM18 16.6426L19.607 18.5577L21.1391 17.2721L19.5321 15.357L18 16.6426ZM20.373 17.9149L18.766 15.9998L17.234 17.2854L18.8409 19.2005L20.373 17.9149ZM19.6686 17.8533C19.8801 17.6758 20.1955 17.7034 20.373 17.9149L18.8409 19.2005C19.3734 19.8351 20.3196 19.9179 20.9542 19.3854L19.6686 17.8533ZM19.607 18.5577C19.4295 18.3462 19.4571 18.0308 19.6686 17.8533L20.9542 19.3854C21.5888 18.8529 21.6716 17.9067 21.1391 17.2721L19.607 18.5577Z" fill="#089BAB" mask="url(#path-4-inside-2_366_894)"/>
  <mask id="path-6-inside-3_366_894" fill="white">
    <path d="M6.6944 16.6426L5.92835 15.9998L4.32138 17.9149C4.14388 18.1264 4.17147 18.4418 4.38301 18.6193C4.59455 18.7968 4.90993 18.7692 5.08743 18.5577L6.6944 16.6426Z"/>
  </mask>
  <path d="M6.6944 16.6426L7.33718 15.8765L8.10323 16.5193L7.46044 17.2854L6.6944 16.6426ZM5.92835 15.9998L5.16231 15.357L5.8051 14.591L6.57114 15.2337L5.92835 15.9998ZM6.05161 17.4086L5.28556 16.7658L6.57114 15.2337L7.33718 15.8765L6.05161 17.4086ZM6.6944 16.6426L5.08743 18.5577L3.55534 17.2721L5.16231 15.357L6.6944 16.6426ZM4.32138 17.9149L5.92835 15.9998L7.46044 17.2854L5.85347 19.2005L4.32138 17.9149ZM5.0258 17.8533C4.81426 17.6758 4.49888 17.7034 4.32138 17.9149L5.85347 19.2005C5.32097 19.8351 4.37484 19.9179 3.74022 19.3854L5.0258 17.8533ZM5.08743 18.5577C5.26493 18.3462 5.23734 18.0308 5.0258 17.8533L3.74022 19.3854C3.10561 18.8529 3.02284 17.9067 3.55534 17.2721L5.08743 18.5577Z" fill="#089BAB" mask="url(#path-6-inside-3_366_894)"/>
</svg>