<svg width="24" height="24" viewBox="0 0 24 24" fill="none" xmlns="http://www.w3.org/2000/svg">
<path d="M22.5 11.5C22.5 17.0228 18.0228 21.5 12.5 21.5C6.97715 21.5 2.5 17.0228 2.5 11.5C2.5 5.97715 6.97715 1.5 12.5 1.5C18.0228 1.5 22.5 5.97715 22.5 11.5Z" stroke="white" stroke-linejoin="round"/>
<path fill-rule="evenodd" clip-rule="evenodd" d="M12.5 5C12.2239 5 12 5.22386 12 5.5V11H6.5C6.22386 11 6 11.2239 6 11.5C6 11.7761 6.22386 12 6.5 12H12V17.5C12 17.7761 12.2239 18 12.5 18C12.7761 18 13 17.7761 13 17.5V12H18.5C18.7761 12 19 11.7761 19 11.5C19 11.2239 18.7761 11 18.5 11H13V5.5C13 5.22386 12.7761 5 12.5 5Z" fill="white"/>
</svg>
