<svg xmlns="http://www.w3.org/2000/svg" width="52" height="48" viewBox="0 0 52 48" fill="none">
  <path fill-rule="evenodd" clip-rule="evenodd" d="M30.1891 44.3471L26.4606 47.8188C26.2012 48.0604 25.7988 48.0604 25.5394 47.8188L25.3091 47.6044L21.829 44.3635C12.7018 36.267 9.23987 32.9184 6.10102 29.0888C1.94062 24.013 0 19.5278 0 14.7925C0 6.46712 6.44967 0 14.7558 0C18.9017 0 23.0592 1.77909 26 4.77141C28.9408 1.77909 33.0983 0 37.2442 0C45.5503 0 52 6.46712 52 14.7925C52 17.406 51.3515 19.9714 50.0387 22.6048C49.4814 23.7227 48.9174 24.7183 48.2821 25.6939C48.2588 25.9193 48.1244 26.1117 47.9344 26.2156C45.3541 30.0042 41.5643 33.8349 30.1891 44.3471ZM7.66886 27.8076C10.7203 31.5306 14.1339 34.8315 23.1927 42.8676L26 45.4816L28.8101 42.865C38.8554 33.5819 42.8621 29.6214 45.378 26.2982H32.6515L28.5548 33.1156C28.2714 33.5873 27.572 33.5399 27.355 33.0343L21.7727 20.0284L17.9759 25.9859C17.8519 26.1804 17.637 26.2982 17.4061 26.2982H6.48673C6.85564 26.7931 7.24942 27.2959 7.66886 27.8076ZM16.6647 24.2752L21.4368 16.7875C21.7282 16.3303 22.4134 16.3858 22.6272 16.8839L28.1766 29.8131L31.3077 24.6026C31.4297 24.3995 31.6495 24.2752 31.8867 24.2752H46.7845C47.2975 23.4637 47.7632 22.6297 48.225 21.7034C49.4016 19.3431 49.974 17.0833 49.974 14.7925C49.974 7.58286 44.4299 2.02294 37.2442 2.02294C33.3125 2.02294 29.3421 3.88232 26.7747 6.92503L26.5165 7.23106C26.2466 7.55083 25.7534 7.55083 25.4835 7.23106L25.2253 6.92503C22.6579 3.88232 18.6875 2.02294 14.7558 2.02294C7.57009 2.02294 2.02597 7.58286 2.02597 14.7925C2.02597 17.9427 3.00859 20.9901 5.08978 24.2752H16.6647Z" fill="#6BC3CD"/>
</svg>