<svg width="66" height="60" viewBox="0 0 66 60" fill="none" xmlns="http://www.w3.org/2000/svg">
<g id="like">
<path id="Path" d="M32.8027 10.5991C35.4665 4.36044 41.5518 0.00130435 48.6298 0.00130435C58.1643 0.00130435 65.0311 8.06087 65.8944 17.6661C65.8944 17.6661 66.3604 20.0504 65.3347 24.343C63.9381 30.1891 60.6552 35.383 56.2292 39.347L32.8027 60L9.77084 39.3457C5.34479 35.383 2.06188 30.1878 0.665296 24.3417C-0.360364 20.0491 0.105605 17.6648 0.105605 17.6648C0.968902 8.05957 7.83568 0 17.3702 0C24.4495 0 30.1388 4.36044 32.8027 10.5991Z" fill="#089BAB"/>
<mask id="mask0_0_418" style="mask-type:luminance" maskUnits="userSpaceOnUse" x="0" y="0" width="66" height="60">
<path id="Path_2" d="M32.8027 10.5991C35.4665 4.36044 41.5518 0.00130435 48.6298 0.00130435C58.1643 0.00130435 65.0311 8.06087 65.8944 17.6661C65.8944 17.6661 66.3604 20.0504 65.3347 24.343C63.9381 30.1891 60.6552 35.383 56.2292 39.347L32.8027 60L9.77084 39.3457C5.34479 35.383 2.06188 30.1878 0.665296 24.3417C-0.360364 20.0491 0.105605 17.6648 0.105605 17.6648C0.968902 8.05957 7.83568 0 17.3702 0C24.4495 0 30.1388 4.36044 32.8027 10.5991Z" fill="white"/>
</mask>
<g mask="url(#mask0_0_418)">
<path id="Oval" opacity="0.3" fill-rule="evenodd" clip-rule="evenodd" d="M1 34C19.7777 34 35 18.7777 35 0C35 -18.7777 19.7777 -34 1 -34C-17.7777 -34 -33 -18.7777 -33 0C-33 18.7777 -17.7777 34 1 34Z" fill="white"/>
<path id="Oval Copy" opacity="0.3" fill-rule="evenodd" clip-rule="evenodd" d="M19 51C40.5391 51 58 33.5391 58 12C58 -9.5391 40.5391 -27 19 -27C-2.5391 -27 -20 -9.5391 -20 12C-20 33.5391 -2.5391 51 19 51Z" fill="white"/>
</g>
</g>
</svg>
