<svg xmlns="http://www.w3.org/2000/svg" width="20" height="20" viewBox="0 0 20 20" fill="none">
  <path fill-rule="evenodd" clip-rule="evenodd" d="M15.8334 0.833008C15.3731 0.833008 15 1.2061 15 1.66634V2.49967H5.00002V1.66634C5.00002 1.2061 4.62692 0.833008 4.16669 0.833008C3.70645 0.833008 3.33335 1.2061 3.33335 1.66634L3.33335 2.49967C1.95264 2.49967 0.833355 3.61896 0.833355 4.99967V16.6663C0.833355 18.0471 1.95264 19.1663 3.33335 19.1663H16.6667C18.0474 19.1663 19.1667 18.0471 19.1667 16.6663V4.99967C19.1667 3.61896 18.0474 2.49967 16.6667 2.49967V1.66634C16.6667 1.2061 16.2936 0.833008 15.8334 0.833008ZM18.3334 6.66634H1.66669L1.66669 16.6663C1.66669 17.5868 2.41288 18.333 3.33335 18.333H16.6667C17.5872 18.333 18.3334 17.5868 18.3334 16.6663V6.66634ZM4.83335 14.1663C5.38564 14.1663 5.83335 14.6141 5.83335 15.1663V15.6663C5.83335 16.2186 5.38564 16.6663 4.83335 16.6663H4.33335C3.78107 16.6663 3.33335 16.2186 3.33335 15.6663V15.1663C3.33335 14.6141 3.78107 14.1663 4.33335 14.1663H4.83335Z" fill="#089BAB"/>
  <path fill-rule="evenodd" clip-rule="evenodd" d="M3.33335 8.74967C3.33335 8.51956 3.5199 8.33301 3.75002 8.33301C3.98014 8.33301 4.16669 8.51956 4.16669 8.74967C4.16669 8.97979 3.98014 9.16634 3.75002 9.16634C3.5199 9.16634 3.33335 8.97979 3.33335 8.74967ZM16.6667 8.74967C16.6667 8.97979 16.4801 9.16634 16.25 9.16634C16.0199 9.16634 15.8334 8.97979 15.8334 8.74967C15.8334 8.51956 16.0199 8.33301 16.25 8.33301C16.4801 8.33301 16.6667 8.51956 16.6667 8.74967Z" fill="#089BAB"/>
</svg>