<svg width="24" height="24" viewBox="0 0 24 24" fill="none" xmlns="http://www.w3.org/2000/svg">
<g id="ic/global/more">
<path id="Oval" d="M6.5 12.5C6.5 13.6046 5.60457 14.5 4.5 14.5C3.39543 14.5 2.5 13.6046 2.5 12.5C2.5 11.3954 3.39543 10.5 4.5 10.5C5.60457 10.5 6.5 11.3954 6.5 12.5Z" stroke="#089BAB"/>
<path id="Oval Copy" d="M13.5 12.5C13.5 13.6046 12.6046 14.5 11.5 14.5C10.3954 14.5 9.5 13.6046 9.5 12.5C9.5 11.3954 10.3954 10.5 11.5 10.5C12.6046 10.5 13.5 11.3954 13.5 12.5Z" stroke="#089BAB"/>
<path id="Oval Copy 2" d="M20.5 12.5C20.5 13.6046 19.6046 14.5 18.5 14.5C17.3954 14.5 16.5 13.6046 16.5 12.5C16.5 11.3954 17.3954 10.5 18.5 10.5C19.6046 10.5 20.5 11.3954 20.5 12.5Z" stroke="#089BAB"/>
</g>
</svg>
