<svg xmlns="http://www.w3.org/2000/svg" width="24" height="24" viewBox="0 0 24 24" fill="none">
<path fill-rule="evenodd" clip-rule="evenodd" d="M21.8223 20.9645L17.9479 17.09C21.0806 13.5159 20.9423 8.0743 17.533 4.66504C13.9796 1.11165 8.21843 1.11165 4.66504 4.66504C1.11165 8.21843 1.11165 13.9796 4.66504 17.533C8.0743 20.9423 13.5159 21.0806 17.09 17.9479L20.9645 21.8223C21.2014 22.0592 21.5854 22.0592 21.8223 21.8223C22.0592 21.5854 22.0592 21.2014 21.8223 20.9645ZM16.6751 5.52291C19.7547 8.60251 19.7547 13.5955 16.6751 16.6751C13.5955 19.7547 8.60251 19.7547 5.52291 16.6751C2.4433 13.5955 2.4433 8.60251 5.52291 5.52291C8.60251 2.4433 13.5955 2.4433 16.6751 5.52291Z" fill="#089BAB"/>
</svg>