<svg width="25" height="24" viewBox="0 0 25 24" fill="none" xmlns="http://www.w3.org/2000/svg">
<g id="ic/global/dashboard copy 2">
<path id="Rectangle 4" d="M18.136 7.66703C19.9964 8.88617 21.7573 10.4681 23.3319 12.0206C21.7699 13.557 20.0017 15.1223 18.1351 16.3313C16.1205 17.6362 14.0346 18.4974 11.9994 18.5C9.95778 18.5026 7.88587 17.6446 5.88573 16.3405C4.03139 15.1315 2.27588 13.5635 0.70979 12.0209C2.26476 10.4901 4.02818 8.91905 5.88973 7.70059C7.89993 6.38482 9.97937 5.51033 12.0026 5.49997C14.0533 5.48948 16.1303 6.35263 18.136 7.66703Z" stroke="#089BAB"/>
<g id="Rectangle">
<mask id="path-2-inside-1_137_51" fill="white">
<path d="M12 18H13V20.5C13 20.7761 12.7761 21 12.5 21C12.2239 21 12 20.7761 12 20.5V18Z"/>
</mask>
<path d="M12 18V17H11V18H12ZM13 18H14V17H13V18ZM12 19H13V17H12V19ZM12 18V20.5H14V18H12ZM13 20.5V18H11V20.5H13ZM12.5 20C12.7761 20 13 20.2239 13 20.5H11C11 21.3284 11.6716 22 12.5 22V20ZM12 20.5C12 20.2239 12.2239 20 12.5 20V22C13.3284 22 14 21.3284 14 20.5H12Z" fill="#089BAB" mask="url(#path-2-inside-1_137_51)"/>
</g>
<g id="Rectangle Copy">
<mask id="path-4-inside-2_137_51" fill="white">
<path d="M18 16.6428L18.766 16L20.373 17.9151C20.5505 18.1266 20.5229 18.442 20.3114 18.6195C20.0998 18.797 19.7845 18.7694 19.607 18.5579L18 16.6428Z"/>
</mask>
<path d="M18 16.6428L17.3572 15.8767L16.5912 16.5195L17.234 17.2855L18 16.6428ZM18.766 16L19.5321 15.3572L18.8893 14.5911L18.1233 15.2339L18.766 16ZM18.6428 17.4088L19.4088 16.766L18.1233 15.2339L17.3572 15.8767L18.6428 17.4088ZM18 16.6428L19.607 18.5579L21.1391 17.2723L19.5321 15.3572L18 16.6428ZM20.373 17.9151L18.766 16L17.234 17.2855L18.8409 19.2007L20.373 17.9151ZM19.6686 17.8535C19.8801 17.676 20.1955 17.7035 20.373 17.9151L18.8409 19.2007C19.3734 19.8353 20.3196 19.918 20.9542 19.3855L19.6686 17.8535ZM19.607 18.5579C19.4295 18.3463 19.4571 18.031 19.6686 17.8535L20.9542 19.3855C21.5888 18.853 21.6716 17.9069 21.1391 17.2723L19.607 18.5579Z" fill="#089BAB" mask="url(#path-4-inside-2_137_51)"/>
</g>
<g id="Rectangle Copy 2">
<mask id="path-6-inside-3_137_51" fill="white">
<path d="M6.69446 16.6428L5.92841 16L4.32144 17.9151C4.14394 18.1266 4.17154 18.442 4.38307 18.6195C4.59461 18.797 4.90999 18.7694 5.08749 18.5579L6.69446 16.6428Z"/>
</mask>
<path d="M6.69446 16.6428L7.33725 15.8767L8.10329 16.5195L7.4605 17.2855L6.69446 16.6428ZM5.92841 16L5.16237 15.3572L5.80516 14.5911L6.5712 15.2339L5.92841 16ZM6.05167 17.4088L5.28563 16.766L6.5712 15.2339L7.33725 15.8767L6.05167 17.4088ZM6.69446 16.6428L5.08749 18.5579L3.5554 17.2723L5.16237 15.3572L6.69446 16.6428ZM4.32144 17.9151L5.92841 16L7.4605 17.2855L5.85353 19.2007L4.32144 17.9151ZM5.02586 17.8535C4.81432 17.676 4.49895 17.7035 4.32144 17.9151L5.85353 19.2007C5.32103 19.8353 4.3749 19.918 3.74029 19.3855L5.02586 17.8535ZM5.08749 18.5579C5.26499 18.3463 5.2374 18.031 5.02586 17.8535L3.74029 19.3855C3.10567 18.853 3.0229 17.9069 3.5554 17.2723L5.08749 18.5579Z" fill="#089BAB" mask="url(#path-6-inside-3_137_51)"/>
</g>
</g>
</svg>
