<svg xmlns="http://www.w3.org/2000/svg" width="52" height="50" viewBox="0 0 52 50" fill="none">
  <path fill-rule="evenodd" clip-rule="evenodd" d="M37.572 0C41.6143 0 45.3253 1.67034 48.0218 4.70358C50.5871 7.58911 52 11.3875 52 15.3989C52 20.9627 49.9415 29.0507 46.4935 37.0346C44.9568 40.5925 43.3288 43.6676 41.7855 45.9275C39.9399 48.6302 38.3611 49.9441 36.9584 49.9442C36.3386 49.9439 35.2061 49.6785 34.5765 47.9038C33.9722 46.1994 33.4341 44.2197 32.8646 42.1233L32.8638 42.1205C32.0023 38.9503 31.1127 35.6766 29.9426 33.2145C28.7611 30.7283 27.5041 29.5197 26.0998 29.5197H25.9003C22.7421 29.5197 20.7803 36.477 19.2039 42.0676L19.2036 42.0688C18.6079 44.1815 18.0462 46.1733 17.4217 47.9085C16.7791 49.6942 15.6337 49.9608 15.0081 49.9608C13.5985 49.9608 12.0181 48.6667 10.1765 46.0043C8.62924 43.7674 7.00468 40.7225 5.47851 37.1987C2.04808 29.2786 0 21.1294 0 15.399C0 11.3876 1.41273 7.58924 3.97799 4.70358C6.67456 1.67034 10.3857 0 14.4282 0C17.6108 0 21.0129 1.89125 23.497 3.27222L23.4989 3.2733C24.4032 3.77592 25.6352 4.46065 25.9997 4.5051C26.3662 4.45985 27.6061 3.77237 28.5127 3.26953L28.513 3.26933C31.0035 1.88902 34.4118 0 37.572 0ZM36.588 8.81663C36.5932 8.8169 36.5962 8.81706 36.597 8.81712C36.597 8.81712 36.9071 8.8193 36.9173 8.90354C36.9275 8.98777 36.6051 9.07342 36.6051 9.07342C36.5909 9.0779 35.1496 9.46087 33.0067 9.46087C30.9036 9.46087 28.8599 9.04406 26.9324 8.22196C26.4293 8.00747 25.9555 7.72654 25.5744 7.50058L25.5724 7.49936C24.6779 6.97023 23.916 6.41546 23.3523 5.99121C23.1764 5.85825 22.9876 5.71247 22.7959 5.56439C22.3156 5.19335 21.819 4.80986 21.4663 4.5846C19.0614 3.04926 16.4303 2.13267 14.4282 2.13267C6.72559 2.13267 2.12271 8.87777 2.12271 15.3989C2.12271 20.7697 4.15433 28.7966 7.42487 36.3475C8.8755 39.6967 10.4717 42.6939 11.9195 44.7869C13.9991 47.7934 14.8167 47.8571 15.0081 47.8279C15.2157 47.7962 15.2764 47.6181 15.3712 47.3396C15.3879 47.2905 15.4057 47.2382 15.4255 47.1831C16.0239 45.5206 16.575 43.5664 17.1583 41.4977L17.1612 41.4874C18.0782 38.2345 19.0266 34.871 20.2753 32.2559C21.8398 28.9794 23.6798 27.3867 25.9003 27.3867H26.0998C28.4048 27.3867 30.2884 28.9923 31.8581 32.2953C33.11 34.9294 34.0245 38.2948 34.9091 41.55L34.9115 41.5586C35.4703 43.6152 35.9982 45.5577 36.5764 47.1876C36.5945 47.2389 36.6109 47.2861 36.6261 47.3297C36.7408 47.6603 36.7809 47.7761 36.9584 47.8113C37.2856 47.8761 38.3658 47.1654 40.0351 44.7208C41.4819 42.6021 43.084 39.5708 44.546 36.1855C47.8345 28.572 49.8773 20.607 49.8773 15.399C49.8773 8.87789 45.2744 2.1328 37.5719 2.1328C34.9581 2.1328 31.8265 3.8686 29.5394 5.13631L29.5385 5.1368C29.1233 5.36707 27.4014 6.37443 27.4014 6.58137C27.4014 6.79394 28.9862 7.51039 30.3266 7.86694C33.2218 8.63729 36.3947 8.80633 36.588 8.81663Z" fill="white"/>
</svg>