<svg width="65" height="56" viewBox="0 0 65 56" fill="none" xmlns="http://www.w3.org/2000/svg">
<path d="M35.3236 11.5392C37.7049 5.92439 43.1448 2.00117 49.4721 2.00117C57.9954 2.00117 64.1339 9.25478 64.9056 17.8995C64.9056 17.8995 65.3221 20.0454 64.4053 23.9087C63.1568 29.1702 60.2221 33.8447 56.2655 37.4123L35.3236 56L14.7345 37.4111C10.7779 33.8447 7.8432 29.169 6.59473 23.9076C5.67786 20.0442 6.0944 17.8983 6.0944 17.8983C6.86614 9.25361 13.0046 2 21.5279 2C27.8564 2 32.9423 5.92439 35.3236 11.5392Z" fill="#E6F5F6"/>
<path d="M30.3236 10.5392C32.7049 4.92439 38.1448 1.00117 44.4721 1.00117C52.9954 1.00117 59.1339 8.25478 59.9056 16.8995C59.9056 16.8995 60.3221 19.0454 59.4053 22.9087C58.1568 28.1702 55.2221 32.8447 51.2655 36.4123L30.3236 55L9.73454 36.4111C5.77792 32.8447 2.8432 28.169 1.59473 22.9076C0.677856 19.0442 1.0944 16.8983 1.0944 16.8983C1.86614 8.25361 8.00462 1 16.5279 1C22.8564 1 27.9423 4.92439 30.3236 10.5392Z" stroke="#6BC3CD"/>
<mask id="mask0_0_329" style="mask-type:luminance" maskUnits="userSpaceOnUse" x="0" y="0" width="61" height="56">
<path d="M30.3236 10.5392C32.7049 4.92439 38.1448 1.00117 44.4721 1.00117C52.9954 1.00117 59.1339 8.25478 59.9056 16.8995C59.9056 16.8995 60.3221 19.0454 59.4053 22.9087C58.1568 28.1702 55.2221 32.8447 51.2655 36.4123L30.3236 55L9.73454 36.4111C5.77792 32.8447 2.8432 28.169 1.59473 22.9076C0.677856 19.0442 1.0944 16.8983 1.0944 16.8983C1.86614 8.25361 8.00462 1 16.5279 1C22.8564 1 27.9423 4.92439 30.3236 10.5392Z" fill="white" stroke="white"/>
</mask>
<g mask="url(#mask0_0_329)">
<path d="M18 29.25C18 31.4591 23.5964 33.25 30.5 33.25V33.25C37.4036 33.25 43 31.4591 43 29.25" stroke="#6BC3CD" stroke-linecap="round"/>
<path fill-rule="evenodd" clip-rule="evenodd" d="M23.5 23C24.3284 23 25 22.3284 25 21.5C25 20.6716 24.3284 20 23.5 20C22.6716 20 22 20.6716 22 21.5C22 22.3284 22.6716 23 23.5 23Z" fill="#6BC3CD"/>
<path fill-rule="evenodd" clip-rule="evenodd" d="M36.5 23C37.3284 23 38 22.3284 38 21.5C38 20.6716 37.3284 20 36.5 20C35.6716 20 35 20.6716 35 21.5C35 22.3284 35.6716 23 36.5 23Z" fill="#6BC3CD"/>
</g>
</svg>
